<?xml version="1.0" encoding="utf-8"?>
<svg xmlns="http://www.w3.org/2000/svg" xmlns:xlink="http://www.w3.org/1999/xlink" width="700" height="520" viewBox="0 0 2800 2080">
<defs>
  <clipPath id="clip420">
    <rect x="0" y="0" width="2800" height="2080"/>
  </clipPath>
</defs>
<path clip-path="url(#clip420)" d="M0 2080 L2800 2080 L2800 -7.10543e-14 L0 -7.10543e-14  Z" fill="#ffffff" fill-rule="evenodd" fill-opacity="1"/>
<defs>
  <clipPath id="clip421">
    <rect x="560" y="0" width="1961" height="1961"/>
  </clipPath>
</defs>
<path clip-path="url(#clip420)" d="M151.478 1869.56 L2752.76 1869.56 L2752.76 135.378 L151.478 135.378  Z" fill="#ffffff" fill-rule="evenodd" fill-opacity="1"/>
<defs>
  <clipPath id="clip422">
    <rect x="151" y="135" width="2602" height="1735"/>
  </clipPath>
</defs>
<polyline clip-path="url(#clip422)" style="stroke:#000000; stroke-linecap:round; stroke-linejoin:round; stroke-width:2; stroke-opacity:0.1; fill:none" points="151.478,1869.56 151.478,135.378 "/>
<polyline clip-path="url(#clip422)" style="stroke:#000000; stroke-linecap:round; stroke-linejoin:round; stroke-width:2; stroke-opacity:0.1; fill:none" points="585.024,1869.56 585.024,135.378 "/>
<polyline clip-path="url(#clip422)" style="stroke:#000000; stroke-linecap:round; stroke-linejoin:round; stroke-width:2; stroke-opacity:0.1; fill:none" points="1018.57,1869.56 1018.57,135.378 "/>
<polyline clip-path="url(#clip422)" style="stroke:#000000; stroke-linecap:round; stroke-linejoin:round; stroke-width:2; stroke-opacity:0.1; fill:none" points="1452.12,1869.56 1452.12,135.378 "/>
<polyline clip-path="url(#clip422)" style="stroke:#000000; stroke-linecap:round; stroke-linejoin:round; stroke-width:2; stroke-opacity:0.1; fill:none" points="1885.66,1869.56 1885.66,135.378 "/>
<polyline clip-path="url(#clip422)" style="stroke:#000000; stroke-linecap:round; stroke-linejoin:round; stroke-width:2; stroke-opacity:0.1; fill:none" points="2319.21,1869.56 2319.21,135.378 "/>
<polyline clip-path="url(#clip422)" style="stroke:#000000; stroke-linecap:round; stroke-linejoin:round; stroke-width:2; stroke-opacity:0.1; fill:none" points="2752.76,1869.56 2752.76,135.378 "/>
<polyline clip-path="url(#clip422)" style="stroke:#000000; stroke-linecap:round; stroke-linejoin:round; stroke-width:2; stroke-opacity:0.1; fill:none" points="151.478,1869.56 2752.76,1869.56 "/>
<polyline clip-path="url(#clip422)" style="stroke:#000000; stroke-linecap:round; stroke-linejoin:round; stroke-width:2; stroke-opacity:0.1; fill:none" points="151.478,1436.02 2752.76,1436.02 "/>
<polyline clip-path="url(#clip422)" style="stroke:#000000; stroke-linecap:round; stroke-linejoin:round; stroke-width:2; stroke-opacity:0.1; fill:none" points="151.478,1002.47 2752.76,1002.47 "/>
<polyline clip-path="url(#clip422)" style="stroke:#000000; stroke-linecap:round; stroke-linejoin:round; stroke-width:2; stroke-opacity:0.1; fill:none" points="151.478,568.925 2752.76,568.925 "/>
<polyline clip-path="url(#clip422)" style="stroke:#000000; stroke-linecap:round; stroke-linejoin:round; stroke-width:2; stroke-opacity:0.1; fill:none" points="151.478,135.378 2752.76,135.378 "/>
<polyline clip-path="url(#clip420)" style="stroke:#000000; stroke-linecap:round; stroke-linejoin:round; stroke-width:4; stroke-opacity:1; fill:none" points="151.478,1869.56 2752.76,1869.56 "/>
<polyline clip-path="url(#clip420)" style="stroke:#000000; stroke-linecap:round; stroke-linejoin:round; stroke-width:4; stroke-opacity:1; fill:none" points="151.478,1869.56 151.478,1852.41 "/>
<polyline clip-path="url(#clip420)" style="stroke:#000000; stroke-linecap:round; stroke-linejoin:round; stroke-width:4; stroke-opacity:1; fill:none" points="585.024,1869.56 585.024,1852.41 "/>
<polyline clip-path="url(#clip420)" style="stroke:#000000; stroke-linecap:round; stroke-linejoin:round; stroke-width:4; stroke-opacity:1; fill:none" points="1018.57,1869.56 1018.57,1852.41 "/>
<polyline clip-path="url(#clip420)" style="stroke:#000000; stroke-linecap:round; stroke-linejoin:round; stroke-width:4; stroke-opacity:1; fill:none" points="1452.12,1869.56 1452.12,1852.41 "/>
<polyline clip-path="url(#clip420)" style="stroke:#000000; stroke-linecap:round; stroke-linejoin:round; stroke-width:4; stroke-opacity:1; fill:none" points="1885.66,1869.56 1885.66,1852.41 "/>
<polyline clip-path="url(#clip420)" style="stroke:#000000; stroke-linecap:round; stroke-linejoin:round; stroke-width:4; stroke-opacity:1; fill:none" points="2319.21,1869.56 2319.21,1852.41 "/>
<polyline clip-path="url(#clip420)" style="stroke:#000000; stroke-linecap:round; stroke-linejoin:round; stroke-width:4; stroke-opacity:1; fill:none" points="2752.76,1869.56 2752.76,1852.41 "/>
<path clip-path="url(#clip420)" d="M120.946 1918.34 L150.621 1918.34 L150.621 1922.27 L120.946 1922.27 L120.946 1918.34 Z" fill="#000000" fill-rule="nonzero" fill-opacity="1" /><path clip-path="url(#clip420)" d="M174.881 1916.53 Q178.237 1917.25 180.112 1919.52 Q182.01 1921.78 182.01 1925.12 Q182.01 1930.23 178.492 1933.03 Q174.973 1935.84 168.492 1935.84 Q166.316 1935.84 164.001 1935.4 Q161.709 1934.98 159.256 1934.12 L159.256 1929.61 Q161.2 1930.74 163.515 1931.32 Q165.83 1931.9 168.353 1931.9 Q172.751 1931.9 175.043 1930.16 Q177.357 1928.43 177.357 1925.12 Q177.357 1922.06 175.205 1920.35 Q173.075 1918.61 169.256 1918.61 L165.228 1918.61 L165.228 1914.77 L169.441 1914.77 Q172.89 1914.77 174.719 1913.4 Q176.547 1912.02 176.547 1909.42 Q176.547 1906.76 174.649 1905.35 Q172.774 1903.91 169.256 1903.91 Q167.334 1903.91 165.135 1904.33 Q162.936 1904.75 160.297 1905.63 L160.297 1901.46 Q162.959 1900.72 165.274 1900.35 Q167.612 1899.98 169.672 1899.98 Q174.996 1899.98 178.098 1902.41 Q181.2 1904.82 181.2 1908.94 Q181.2 1911.81 179.556 1913.8 Q177.913 1915.77 174.881 1916.53 Z" fill="#000000" fill-rule="nonzero" fill-opacity="1" /><path clip-path="url(#clip420)" d="M554.967 1918.34 L584.642 1918.34 L584.642 1922.27 L554.967 1922.27 L554.967 1918.34 Z" fill="#000000" fill-rule="nonzero" fill-opacity="1" /><path clip-path="url(#clip420)" d="M598.763 1931.23 L615.082 1931.23 L615.082 1935.16 L593.138 1935.16 L593.138 1931.23 Q595.8 1928.47 600.383 1923.84 Q604.989 1919.19 606.17 1917.85 Q608.415 1915.33 609.295 1913.59 Q610.198 1911.83 610.198 1910.14 Q610.198 1907.39 608.253 1905.65 Q606.332 1903.91 603.23 1903.91 Q601.031 1903.91 598.577 1904.68 Q596.147 1905.44 593.369 1906.99 L593.369 1902.27 Q596.193 1901.14 598.647 1900.56 Q601.101 1899.98 603.138 1899.98 Q608.508 1899.98 611.702 1902.66 Q614.897 1905.35 614.897 1909.84 Q614.897 1911.97 614.087 1913.89 Q613.3 1915.79 611.193 1918.38 Q610.614 1919.05 607.513 1922.27 Q604.411 1925.46 598.763 1931.23 Z" fill="#000000" fill-rule="nonzero" fill-opacity="1" /><path clip-path="url(#clip420)" d="M988.328 1918.34 L1018 1918.34 L1018 1922.27 L988.328 1922.27 L988.328 1918.34 Z" fill="#000000" fill-rule="nonzero" fill-opacity="1" /><path clip-path="url(#clip420)" d="M1028.91 1931.23 L1036.55 1931.23 L1036.55 1904.86 L1028.23 1906.53 L1028.23 1902.27 L1036.5 1900.6 L1041.17 1900.6 L1041.17 1931.23 L1048.81 1931.23 L1048.81 1935.16 L1028.91 1935.16 L1028.91 1931.23 Z" fill="#000000" fill-rule="nonzero" fill-opacity="1" /><path clip-path="url(#clip420)" d="M1452.12 1903.68 Q1448.51 1903.68 1446.68 1907.25 Q1444.87 1910.79 1444.87 1917.92 Q1444.87 1925.02 1446.68 1928.59 Q1448.51 1932.13 1452.12 1932.13 Q1455.75 1932.13 1457.56 1928.59 Q1459.39 1925.02 1459.39 1917.92 Q1459.39 1910.79 1457.56 1907.25 Q1455.75 1903.68 1452.12 1903.68 M1452.12 1899.98 Q1457.93 1899.98 1460.98 1904.59 Q1464.06 1909.17 1464.06 1917.92 Q1464.06 1926.65 1460.98 1931.25 Q1457.93 1935.84 1452.12 1935.84 Q1446.31 1935.84 1443.23 1931.25 Q1440.17 1926.65 1440.17 1917.92 Q1440.17 1909.17 1443.23 1904.59 Q1446.31 1899.98 1452.12 1899.98 Z" fill="#000000" fill-rule="nonzero" fill-opacity="1" /><path clip-path="url(#clip420)" d="M1876.05 1931.23 L1883.68 1931.23 L1883.68 1904.86 L1875.37 1906.53 L1875.37 1902.27 L1883.64 1900.6 L1888.31 1900.6 L1888.31 1931.23 L1895.95 1931.23 L1895.95 1935.16 L1876.05 1935.16 L1876.05 1931.23 Z" fill="#000000" fill-rule="nonzero" fill-opacity="1" /><path clip-path="url(#clip420)" d="M2313.86 1931.23 L2330.18 1931.23 L2330.18 1935.16 L2308.24 1935.16 L2308.24 1931.23 Q2310.9 1928.47 2315.48 1923.84 Q2320.09 1919.19 2321.27 1917.85 Q2323.52 1915.33 2324.39 1913.59 Q2325.3 1911.83 2325.3 1910.14 Q2325.3 1907.39 2323.35 1905.65 Q2321.43 1903.91 2318.33 1903.91 Q2316.13 1903.91 2313.68 1904.68 Q2311.25 1905.44 2308.47 1906.99 L2308.47 1902.27 Q2311.29 1901.14 2313.75 1900.56 Q2316.2 1899.98 2318.24 1899.98 Q2323.61 1899.98 2326.8 1902.66 Q2330 1905.35 2330 1909.84 Q2330 1911.97 2329.19 1913.89 Q2328.4 1915.79 2326.29 1918.38 Q2325.71 1919.05 2322.61 1922.27 Q2319.51 1925.46 2313.86 1931.23 Z" fill="#000000" fill-rule="nonzero" fill-opacity="1" /><path clip-path="url(#clip420)" d="M2757 1916.53 Q2760.36 1917.25 2762.24 1919.52 Q2764.13 1921.78 2764.13 1925.12 Q2764.13 1930.23 2760.61 1933.03 Q2757.1 1935.84 2750.61 1935.84 Q2748.44 1935.84 2746.12 1935.4 Q2743.83 1934.98 2741.38 1934.12 L2741.38 1929.61 Q2743.32 1930.74 2745.64 1931.32 Q2747.95 1931.9 2750.48 1931.9 Q2754.87 1931.9 2757.17 1930.16 Q2759.48 1928.43 2759.48 1925.12 Q2759.48 1922.06 2757.33 1920.35 Q2755.2 1918.61 2751.38 1918.61 L2747.35 1918.61 L2747.35 1914.77 L2751.56 1914.77 Q2755.01 1914.77 2756.84 1913.4 Q2758.67 1912.02 2758.67 1909.42 Q2758.67 1906.76 2756.77 1905.35 Q2754.9 1903.91 2751.38 1903.91 Q2749.46 1903.91 2747.26 1904.33 Q2745.06 1904.75 2742.42 1905.63 L2742.42 1901.46 Q2745.08 1900.72 2747.4 1900.35 Q2749.74 1899.98 2751.8 1899.98 Q2757.12 1899.98 2760.22 1902.41 Q2763.32 1904.82 2763.32 1908.94 Q2763.32 1911.81 2761.68 1913.8 Q2760.04 1915.77 2757 1916.53 Z" fill="#000000" fill-rule="nonzero" fill-opacity="1" /><polyline clip-path="url(#clip420)" style="stroke:#000000; stroke-linecap:round; stroke-linejoin:round; stroke-width:4; stroke-opacity:1; fill:none" points="151.478,1869.56 151.478,135.378 "/>
<polyline clip-path="url(#clip420)" style="stroke:#000000; stroke-linecap:round; stroke-linejoin:round; stroke-width:4; stroke-opacity:1; fill:none" points="151.478,1869.56 170.376,1869.56 "/>
<polyline clip-path="url(#clip420)" style="stroke:#000000; stroke-linecap:round; stroke-linejoin:round; stroke-width:4; stroke-opacity:1; fill:none" points="151.478,1436.02 170.376,1436.02 "/>
<polyline clip-path="url(#clip420)" style="stroke:#000000; stroke-linecap:round; stroke-linejoin:round; stroke-width:4; stroke-opacity:1; fill:none" points="151.478,1002.47 170.376,1002.47 "/>
<polyline clip-path="url(#clip420)" style="stroke:#000000; stroke-linecap:round; stroke-linejoin:round; stroke-width:4; stroke-opacity:1; fill:none" points="151.478,568.925 170.376,568.925 "/>
<polyline clip-path="url(#clip420)" style="stroke:#000000; stroke-linecap:round; stroke-linejoin:round; stroke-width:4; stroke-opacity:1; fill:none" points="151.478,135.378 170.376,135.378 "/>
<path clip-path="url(#clip420)" d="M49.3625 1870.02 L79.0383 1870.02 L79.0383 1873.95 L49.3625 1873.95 L49.3625 1870.02 Z" fill="#000000" fill-rule="nonzero" fill-opacity="1" /><path clip-path="url(#clip420)" d="M93.1586 1882.91 L109.478 1882.91 L109.478 1886.84 L87.5336 1886.84 L87.5336 1882.91 Q90.1956 1880.15 94.7789 1875.52 Q99.3854 1870.87 100.566 1869.53 Q102.811 1867.01 103.691 1865.27 Q104.594 1863.51 104.594 1861.82 Q104.594 1859.07 102.649 1857.33 Q100.728 1855.59 97.6261 1855.59 Q95.4271 1855.59 92.9734 1856.36 Q90.5428 1857.12 87.7651 1858.67 L87.7651 1853.95 Q90.5891 1852.82 93.0428 1852.24 Q95.4965 1851.66 97.5335 1851.66 Q102.904 1851.66 106.098 1854.34 Q109.293 1857.03 109.293 1861.52 Q109.293 1863.65 108.483 1865.57 Q107.696 1867.47 105.589 1870.06 Q105.01 1870.73 101.909 1873.95 Q98.8067 1877.14 93.1586 1882.91 Z" fill="#000000" fill-rule="nonzero" fill-opacity="1" /><path clip-path="url(#clip420)" d="M48.9921 1436.47 L78.6679 1436.47 L78.6679 1440.4 L48.9921 1440.4 L48.9921 1436.47 Z" fill="#000000" fill-rule="nonzero" fill-opacity="1" /><path clip-path="url(#clip420)" d="M89.5706 1449.36 L97.2095 1449.36 L97.2095 1423 L88.8993 1424.66 L88.8993 1420.4 L97.1632 1418.74 L101.839 1418.74 L101.839 1449.36 L109.478 1449.36 L109.478 1453.3 L89.5706 1453.3 L89.5706 1449.36 Z" fill="#000000" fill-rule="nonzero" fill-opacity="1" /><path clip-path="url(#clip420)" d="M97.5335 988.27 Q93.9224 988.27 92.0937 991.835 Q90.2882 995.376 90.2882 1002.51 Q90.2882 1009.61 92.0937 1013.18 Q93.9224 1016.72 97.5335 1016.72 Q101.168 1016.72 102.973 1013.18 Q104.802 1009.61 104.802 1002.51 Q104.802 995.376 102.973 991.835 Q101.168 988.27 97.5335 988.27 M97.5335 984.566 Q103.344 984.566 106.399 989.173 Q109.478 993.756 109.478 1002.51 Q109.478 1011.23 106.399 1015.84 Q103.344 1020.42 97.5335 1020.42 Q91.7234 1020.42 88.6447 1015.84 Q85.5892 1011.23 85.5892 1002.51 Q85.5892 993.756 88.6447 989.173 Q91.7234 984.566 97.5335 984.566 Z" fill="#000000" fill-rule="nonzero" fill-opacity="1" /><path clip-path="url(#clip420)" d="M89.5706 582.27 L97.2095 582.27 L97.2095 555.904 L88.8993 557.571 L88.8993 553.311 L97.1632 551.645 L101.839 551.645 L101.839 582.27 L109.478 582.27 L109.478 586.205 L89.5706 586.205 L89.5706 582.27 Z" fill="#000000" fill-rule="nonzero" fill-opacity="1" /><path clip-path="url(#clip420)" d="M93.1586 148.723 L109.478 148.723 L109.478 152.658 L87.5336 152.658 L87.5336 148.723 Q90.1956 145.969 94.7789 141.339 Q99.3854 136.686 100.566 135.344 Q102.811 132.821 103.691 131.085 Q104.594 129.325 104.594 127.635 Q104.594 124.881 102.649 123.145 Q100.728 121.409 97.6261 121.409 Q95.4271 121.409 92.9734 122.173 Q90.5428 122.936 87.7651 124.487 L87.7651 119.765 Q90.5891 118.631 93.0428 118.052 Q95.4965 117.473 97.5335 117.473 Q102.904 117.473 106.098 120.159 Q109.293 122.844 109.293 127.335 Q109.293 129.464 108.483 131.385 Q107.696 133.284 105.589 135.876 Q105.01 136.547 101.909 139.765 Q98.8067 142.959 93.1586 148.723 Z" fill="#000000" fill-rule="nonzero" fill-opacity="1" /><polyline clip-path="url(#clip422)" style="stroke:#4682b4; stroke-linecap:round; stroke-linejoin:round; stroke-width:12; stroke-opacity:1; fill:none" points="975.216,1436.02 1929.02,1436.02 "/>
<polyline clip-path="url(#clip422)" style="stroke:#4682b4; stroke-linecap:round; stroke-linejoin:round; stroke-width:12; stroke-opacity:1; fill:none" points="2102.44,1262.6 2102.44,742.343 "/>
<polyline clip-path="url(#clip422)" style="stroke:#4682b4; stroke-linecap:round; stroke-linejoin:round; stroke-width:12; stroke-opacity:1; fill:none" points="1929.02,568.925 975.216,568.925 "/>
<polyline clip-path="url(#clip422)" style="stroke:#4682b4; stroke-linecap:round; stroke-linejoin:round; stroke-width:12; stroke-opacity:1; fill:none" points="801.797,742.343 801.797,1262.6 "/>
<polyline clip-path="url(#clip422)" style="stroke:#4682b4; stroke-linecap:round; stroke-linejoin:round; stroke-width:12; stroke-opacity:1; fill:none" points="801.797,1262.6 801.887,1268.16 802.154,1273.71 802.599,1279.25 803.221,1284.78 804.02,1290.28 804.995,1295.75 806.145,1301.19 807.469,1306.59 808.965,1311.94 810.632,1317.24 812.468,1322.49 814.471,1327.68 816.64,1332.8 818.971,1337.84 821.463,1342.81 824.113,1347.7 826.918,1352.5 829.876,1357.2 832.983,1361.81 836.236,1366.32 839.632,1370.72 843.167,1375.01 846.838,1379.19 850.641,1383.24 854.572,1387.17 858.627,1390.98 862.801,1394.65 867.091,1398.18 871.492,1401.58 876,1404.83 880.61,1407.94 885.317,1410.9 890.116,1413.7 895.003,1416.35 899.972,1418.84 905.019,1421.18 910.138,1423.34 915.323,1425.35 920.57,1427.18 925.874,1428.85 931.228,1430.35 936.627,1431.67 942.065,1432.82 947.538,1433.79 953.04,1434.59 958.564,1435.22 964.105,1435.66 969.658,1435.93 975.216,1436.02 "/>
<polyline clip-path="url(#clip422)" style="stroke:#4682b4; stroke-linecap:round; stroke-linejoin:round; stroke-width:12; stroke-opacity:1; fill:none" points="1929.02,1436.02 1934.58,1435.93 1940.13,1435.66 1945.67,1435.22 1951.19,1434.59 1956.7,1433.79 1962.17,1432.82 1967.61,1431.67 1973.01,1430.35 1978.36,1428.85 1983.66,1427.18 1988.91,1425.35 1994.1,1423.34 1999.21,1421.18 2004.26,1418.84 2009.23,1416.35 2014.12,1413.7 2018.92,1410.9 2023.62,1407.94 2028.23,1404.83 2032.74,1401.58 2037.14,1398.18 2041.43,1394.65 2045.61,1390.98 2049.66,1387.17 2053.59,1383.24 2057.4,1379.19 2061.07,1375.01 2064.6,1370.72 2068,1366.32 2071.25,1361.81 2074.36,1357.2 2077.32,1352.5 2080.12,1347.7 2082.77,1342.81 2085.26,1337.84 2087.59,1332.8 2089.76,1327.68 2091.77,1322.49 2093.6,1317.24 2095.27,1311.94 2096.76,1306.59 2098.09,1301.19 2099.24,1295.75 2100.21,1290.28 2101.01,1284.78 2101.64,1279.25 2102.08,1273.71 2102.35,1268.16 2102.44,1262.6 "/>
<polyline clip-path="url(#clip422)" style="stroke:#4682b4; stroke-linecap:round; stroke-linejoin:round; stroke-width:12; stroke-opacity:1; fill:none" points="2102.44,742.343 2102.35,736.785 2102.08,731.232 2101.64,725.691 2101.01,720.167 2100.21,714.666 2099.24,709.193 2098.09,703.754 2096.76,698.355 2095.27,693.001 2093.6,687.698 2091.77,682.451 2089.76,677.265 2087.59,672.146 2085.26,667.1 2082.77,662.131 2080.12,657.244 2077.32,652.444 2074.36,647.737 2071.25,643.128 2068,638.62 2064.6,634.219 2061.07,629.929 2057.4,625.754 2053.59,621.699 2049.66,617.768 2045.61,613.965 2041.43,610.294 2037.14,606.759 2032.74,603.363 2028.23,600.11 2023.62,597.003 2018.92,594.046 2014.12,591.241 2009.23,588.591 2004.26,586.099 1999.21,583.767 1994.1,581.599 1988.91,579.596 1983.66,577.759 1978.36,576.093 1973.01,574.596 1967.61,573.273 1962.17,572.123 1956.7,571.148 1951.19,570.349 1945.67,569.726 1940.13,569.281 1934.58,569.014 1929.02,568.925 "/>
<polyline clip-path="url(#clip422)" style="stroke:#4682b4; stroke-linecap:round; stroke-linejoin:round; stroke-width:12; stroke-opacity:1; fill:none" points="975.216,568.925 969.658,569.014 964.105,569.281 958.564,569.726 953.04,570.349 947.538,571.148 942.065,572.123 936.627,573.273 931.228,574.596 925.874,576.093 920.57,577.759 915.323,579.596 910.138,581.599 905.019,583.767 899.972,586.099 895.003,588.591 890.116,591.241 885.317,594.046 880.61,597.003 876,600.11 871.492,603.363 867.091,606.759 862.801,610.294 858.627,613.965 854.572,617.768 850.641,621.699 846.838,625.754 843.167,629.929 839.632,634.219 836.236,638.62 832.983,643.128 829.876,647.737 826.918,652.444 824.113,657.244 821.463,662.131 818.971,667.1 816.64,672.146 814.471,677.265 812.468,682.451 810.632,687.698 808.965,693.001 807.469,698.355 806.145,703.754 804.995,709.193 804.02,714.666 803.221,720.167 802.599,725.691 802.154,731.232 801.887,736.785 801.797,742.343 "/>
</svg>
